<svg width="20" height="20" viewBox="0 0 20 20" fill="none" xmlns="http://www.w3.org/2000/svg">
<path d="M19.4601 15.9421L19.3656 15.6421C19.1416 14.9412 18.4074 14.2102 17.7329 14.0176L15.2367 13.2997C14.5597 13.1058 13.5941 13.3665 13.0988 13.8879L12.1953 14.839C8.91202 13.905 6.33739 11.1943 5.45138 7.73835L6.35487 6.78717C6.85015 6.26573 7.09776 5.25045 6.91359 4.53776L6.2329 1.90841C6.04873 1.19702 5.3531 0.424094 4.68862 0.190878L4.40366 0.0900115C3.7379 -0.143205 2.78842 0.0926526 2.29318 0.614045L0.94175 2.03812C0.700318 2.29095 0.546014 3.01412 0.546014 3.01676C0.498747 7.53393 2.18116 11.886 5.2162 15.0813C8.24379 18.2687 12.3621 20.0374 16.6403 19.9994C16.6627 19.9994 17.3695 19.8396 17.611 19.5867L18.9624 18.1639C19.4576 17.6425 19.6816 16.643 19.4601 15.9421Z" fill="black"/>
</svg>
