<svg width="22" height="22" viewBox="0 0 22 22" fill="none" xmlns="http://www.w3.org/2000/svg">
<path d="M11.0453 0C5.272 0 0.594971 4.92374 0.594971 11C0.594971 17.0763 5.27267 22 11.0453 22C16.8186 22 21.4956 17.0763 21.4956 11C21.4956 4.92374 16.8179 0 11.0453 0ZM16.1781 7.53606L14.4629 16.0437C14.3361 16.6469 13.995 16.7931 13.519 16.5092L10.9064 14.4824L9.6463 15.7598C9.50741 15.906 9.38942 16.0302 9.11974 16.0302L9.30515 13.2312L14.1467 8.62684C14.3577 8.43168 14.1002 8.32097 13.8217 8.51613L7.83806 12.4811L5.25919 11.6337C4.69891 11.4478 4.6861 11.044 5.37717 10.7601L15.4526 6.67026C15.9205 6.49284 16.3291 6.79019 16.1774 7.53535L16.1781 7.53606Z" fill="black"/>
</svg>
